<?xml version="1.0" standalone="no"?><!DOCTYPE svg PUBLIC "-//W3C//DTD SVG 1.1//EN" "http://www.w3.org/Graphics/SVG/1.1/DTD/svg11.dtd"><svg t="1760850961942" class="icon" viewBox="0 0 1024 1024" version="1.1" xmlns="http://www.w3.org/2000/svg" p-id="1304" xmlns:xlink="http://www.w3.org/1999/xlink" width="200" height="200"><path d="M512 32c265.08799969 0 480 214.91200031 480 480 0 265.08799969-214.91200031 480-480 480-265.08799969 0-480-214.91200031-480-480C32 246.91200031 246.91200031 32 512 32z m76.92799969 602.17600031c-4.57600031 1.66399969-8.70400031 3.52000031-12.99199969 4.63999969-19.68 5.376-39.264 2.33599969-58.752-0.79999969-4.06399969-0.70399969-6.24 0-8.38399969 3.84a2749.85599969 2749.85599969 0 0 1-36.35200031 62.65599938 19.32799969 19.32799969 0 0 1-9.72799969 7.64800031c-14.17600031 4.416-26.81599969-3.264-31.008-17.98399969-0.83200031-2.84800031-1.40800031-5.76-2.17600031-8.64a34.24000031 34.24000031 0 0 0-0.768 24.63999938c4.67200031 13.18399969 15.552 18.24 28.00000031 21.95200031-12.99199969 22.464-25.60000031 44.352-38.27200031 66.528 10.72000031 2.56000031 12.92800031 1.824 19.13599969-5.11999969 9.91999969-11.10400031 19.84000031-22.24000031 30.01600031-32.928 5.69599969-5.76 11.712-11.26399969 18.01600031-16.38400031 2.688-2.112 6.24-3.29599969 10.87999969-5.664-0.768 21.34399969-1.40800031 40.96000031-2.17600031 61.152 3.67999969 0 6.816-0.384 9.76000031 0.096 5.24800031 0.864 6.88000031-1.69600031 8.256-6.55999969 3.23200031-11.83999969 6.528-23.64799969 11.10400031-34.88000062 3.168-7.71199969 7.68-15.04000031 12.768-21.504 5.21599969-6.72 13.056-5.82400031 17.69599969 1.37600062 3.19999969 4.704 5.63200031 9.888 7.2 15.36 3.744 13.824 6.72 27.90400031 10.14400031 41.79199969 0.35200031 1.632 2.08000031 3.84 3.39199969 4.032 4.608 0.48 9.37600031 0.12799969 14.304 0.12799969 0-55.74400031 0-110.52799969-0.06400031-165.37599938zM660.512 279.03999969a810.528 810.528 0 0 0-82.11199969 2.46400031c-22.944 1.728-45.76000031 4.92799969-68.28800062 9.66400031-48.48 10.30399969-94.56 28.35199969-139.32799969 49.632-28.608 13.632-56.64 28.35199969-79.42399969 51.58399969-6.432 6.624-12.44800031 13.88800031-18.68800031 20.76799969-10.176-6.048-20.256-12.35200031-30.59200031-17.91999938a115.80799969 115.80799969 0 0 0-20.352-8.80000031c-9.696-3.00799969-19.80799969 1.92-24.25599938 11.424a99.19999969 99.19999969 0 0 0-6.08000062 17.21599969c-8.19199969 31.488-18.144 62.112-34.49599969 90.40000031-6.59200031 11.424-10.81600031 24.64000031-14.112 37.56799969-5.76 22.78399969 12.768 41.53600031 34.97599969 36.22400062a146.016 146.016 0 0 0 52.28800031-24.864c20.67199969-15.19999969 30.72-35.96800031 29.72800031-62.016-0.54400031-14.08000031-2.016-28.09600031-3.072-42.048 5.24800031 1.60000031 7.71199969 5.63200031 9.27999938 11.87199938 2.04799969 7.93600031 5.15200031 15.52000031 9.28000031 22.59200062 10.24000031 18.432 24.96 33.12 40.57600031 46.71999938 50.14399969 43.64800031 108.288 70.944 171.648 86.84800031 37.85599969 9.47200031 76.00000031 11.10400031 114.11199938-0.31999969 59.74399969-17.92000031 107.10400031-53.69599969 144-104.60800031 5.50399969-7.61599969 10.464-15.67999969 15.68000062-23.52-3.52000031 0.60799969-6.048 2.08000031-8.60800031 3.23200031a83.35999969 83.35999969 0 0 1-7.99999969 3.23199938c-47.616 16.224-95.87200031 16.83199969-144.35200031 5.31200062-40.608-9.63199969-75.04000031-30.72-103.32799969-62.17600031a21.216 21.216 0 0 1-5.40800062-9.024c-0.51199969-2.71999969 0.64000031-7.26400031 2.56000031-8.64 1.85599969-1.27999969 6.07999969-0.22399969 8.70400031 1.08799969 2.496 1.21600031 4.15999969 4.06399969 6.144 6.17600062 19.51999969 20.41600031 40.92799969 38.23999969 67.45599938 48.06399938a250.39999969 250.39999969 0 0 0 137.34400031 11.424c16.608-3.23200031 32.95999969-7.84000031 47.58400031-16.608 5.79199969-3.48799969 12.48-8.256 15.00799969-14.208 9.6-22.52800031 19.45600031-45.37600031 22.08-70.08 1.60000031-14.62399969 2.4-29.82400031 0.22399969-44.16-3.168-20.544-17.79199969-33.024-35.29599938-42.07999969-32.41600031-16.73599969-67.36000031-21.6-102.88000031-22.39999969z m-154.24000031 65.21600062c10.30399969-0.096 19.008 7.90399969 19.07200031 17.568 0 9.696-8.32000031 17.44000031-18.97600031 17.43999938-10.656-0.06400031-18.88000031-7.74400031-18.87999938-17.43999938 0.03199969-9.95200031 8.09599969-17.53600031 18.816-17.60000062z m211.52000062-49.47200062c13.95199969 0.06400031 27.58399969 1.75999969 40.35199969 7.80800062 5.11999969 2.46400031 10.848 5.05600031 11.10400031 12.25599938a15.264 15.264 0 0 1-10.20800062 15.20000062 109.85599969 109.85599969 0 0 1-27.10399969 7.55199938c-18.01600031 2.08000031-36.16000031 3.39199969-53.952-1.59999938a51.90400031 51.90400031 0 0 1-11.39200031-4.57600031c-8.76799969-5.11999969-9.696-14.65600031-1.79199938-21.312 8.928-7.51999969 19.68-11.328 30.912-13.18399969 7.26400031-1.152 14.71999969-1.44 22.08-2.14400062z" fill="#EB4A4A" p-id="1305"></path></svg>