<?xml version="1.0" standalone="no"?><!DOCTYPE svg PUBLIC "-//W3C//DTD SVG 1.1//EN" "http://www.w3.org/Graphics/SVG/1.1/DTD/svg11.dtd"><svg t="1760848578483" class="icon" viewBox="0 0 1024 1024" version="1.1" xmlns="http://www.w3.org/2000/svg" p-id="1007" xmlns:xlink="http://www.w3.org/1999/xlink" width="200" height="200"><path d="M152.01545482 261.79295763v526.92885809c0 52.81716148 63.3805938 84.50745837 95.69226903 95.69226903l298.88299616 68.35162072V234.45230933l-298.88299616-68.35162074c-54.05991822-6.83516209-95.69226905 43.49648593-95.69226903 95.69226906z m694.0796397-95.69226904l-300.12575288 68.35162076v718.93477451l300.12575288-68.35162074c32.31167525-11.80618903 95.69226905-43.49648593 95.69226905-95.69226902V261.79295763c0-52.19578311-41.63235079-102.52743111-95.69226905-95.69226904z" fill="#f39662" p-id="1008"></path><path d="M483.83150458 910.51197632c-1.24275676 0-3.10689185 0-4.34964857-0.6213784l-303.85402312-69.59437747c-0.62137837 0-1.24275676-0.62137837-2.48551347-0.62137836-26.09789156-9.32067555-109.98397155-45.36062103-109.98397157-115.57637692V187.84893156c0-29.20478341 10.5634323-58.40956683 29.20478341-80.15780978 20.50548622-23.6123781 47.84613452-37.28270222 77.05091793-37.28270223 4.34964859 0 8.69929721 0 13.04894578 0.62137838l1.86413511 0.62137838 303.85402311 69.59437748c8.69929721 1.86413513 14.91308089 9.94205392 14.91308089 18.64135111v731.36234192c0 5.59240533-2.48551348 11.18481068-7.45654044 14.91308089-3.10689185 3.10689185-7.45654045 4.34964859-11.80618906 4.34964858z m-298.26161776-106.87707972l278.99888831 64.00197215V175.42136417L176.87058964 109.5552569c-2.48551348 0-4.34964859-0.62137837-6.83516208-0.62137838-40.38959408 0-67.73024237 41.01097246-67.73024237 78.91505304V724.09846521c-0.62137837 45.98199942 67.108864 73.32264772 83.26470163 79.53643139z" fill="#333333" p-id="1009"></path><path d="M485.07426134 910.51197632c-4.34964859 0-8.69929721-1.24275676-11.80618903-4.34964861-4.34964859-3.72827023-7.45654045-9.32067555-7.45654046-14.91308089V160.50828326c0-8.69929721 6.21378371-16.777216 14.9130809-18.6413511l303.85402309-70.21575585 1.86413513-0.62137838c4.34964859-0.62137837 8.69929721-0.62137837 13.04894578-0.62137836 29.20478341 0 56.5454317 13.04894578 77.05091792 37.28270221 18.64135113 21.74824297 29.20478341 50.95302638 29.20478341 80.15780978V724.09846521c0 70.21575587-84.50745837 106.25570133-109.98397156 115.57637688-0.62137837 0-1.24275676 0.62137837-2.48551348 0.62137836L489.42390991 910.51197632h-4.34964857z m19.26272946-735.09061219V867.01549037l278.99888832-64.00197214c16.15583764-6.21378371 83.88608001-33.55443201 83.88607999-78.91505302V187.84893156c0-37.90408058-27.3406483-78.91505303-67.73024236-78.91505304-2.48551348 0-4.34964859 0-6.83516209 0.62137836l-288.31956383 65.86610725z" fill="#333333" p-id="1010"></path><path d="M600.65063822 407.19549631c-2.48551348 0-4.97102697-0.62137837-7.45654044-1.24275677-7.45654045-3.10689185-11.80618903-9.94205392-11.80618902-18.01997274v-242.33756443c0-10.5634323 8.69929721-19.26272948 19.26272946-19.26272948s19.26272948 8.69929721 19.2627295 19.26272948v195.1128083l25.47651317-26.09789155c3.72827023-3.72827023 8.07791882-5.59240533 13.67032415-5.59240532 4.97102697 0 9.94205392 1.86413513 13.67032417 5.59240532l29.20478338 28.58340504v-223.69621334c0-10.5634323 8.69929721-19.26272948 19.2627295-19.26272947s19.26272948 8.69929721 19.26272948 19.26272947v268.43545598c0 7.45654045-4.34964859 14.91308089-11.80618905 18.01997277s-15.53445925 1.24275676-21.12686459-3.72827023l-48.46751289-46.60337778-44.73924267 46.60337778c-3.72827023 3.10689185-8.69929721 4.97102697-13.67032415 4.97102697z" fill="#333333" p-id="1011"></path></svg>