<?xml version="1.0" standalone="no"?><!DOCTYPE svg PUBLIC "-//W3C//DTD SVG 1.1//EN" "http://www.w3.org/Graphics/SVG/1.1/DTD/svg11.dtd"><svg t="1760850931226" class="icon" viewBox="0 0 1024 1024" version="1.1" xmlns="http://www.w3.org/2000/svg" p-id="986" xmlns:xlink="http://www.w3.org/1999/xlink" width="200" height="200"><path d="M512 44.032A467.968 467.968 0 1 0 979.968 512 467.968 467.968 0 0 0 512 44.032zM287.40266667 250.02666667a56.14933333 56.14933333 0 1 1-56.14933334 56.14933333 56.14933333 56.14933333 0 0 1 56.14933334-56.14933333z m-25.25866667 494.93333333l-95.06133333-68.26666667s133.29066667-109.39733333 125.78133333-145.74933333-99.328-81.74933333-99.328-81.74933333l42.66666667-60.24533334s109.39733333 71.50933333 116.90666666 128.17066667-90.96533333 227.66933333-90.96533333 227.66933333z m564.736-106.83733333s-8.87466667 71.68-70.31466667 96.768-155.98933333 6.31466667-155.98933333 6.31466666l5.12-39.08266666s56.49066667 12.62933333 91.648 1.36533333a71.68 71.68 0 0 0 45.39733333-39.08266667V384a80.04266667 80.04266667 0 0 0-37.71733333-48.98133333c-32.768-19.968-49.152-17.06666667-84.30933333-12.45866667a419.66933333 419.66933333 0 0 0-89.25866667 30.03733333l-30.03733333 59.05066667h203.60533333v40.27733333H580.26666667v50.34666667h129.70666666v35.15733333l-126.976 4.94933334v95.57333333l60.416-26.45333333-4.94933333-41.472 48.98133333-10.06933334 36.352 95.57333334L663.552 682.66666667l-7.68-34.13333334s-114.00533333 48.128-159.744 51.2-90.624-7.168-112.46933333-38.05866666-17.06666667-93.01333333-17.06666667-93.01333334l81.23733333 2.048a87.552 87.552 0 0 0 9.728 57.68533334c16.04266667 22.35733333 52.224 17.06666667 52.224 17.06666666v-105.64266666l-125.61066666-3.75466667v-34.13333333H512l-1.36533333-50.34666667-39.424-7.85066667s-32.59733333 51.2-54.10133334 49.664S392.53333333 463.18933333 392.53333333 463.18933333l69.12-85.33333333-37.54666666-3.92533333-56.66133334 66.73066666-42.66666666-37.71733333a314.19733333 314.19733333 0 0 0 55.296-68.26666667 300.032 300.032 0 0 0 32.59733333-80.384l69.12 27.648-20.13866667 38.912s5.12 5.12 22.69866667 2.56 133.29066667-60.24533333 212.30933333-46.42133333 129.536 76.62933333 129.536 125.61066667z" fill="#FC8848" p-id="987"></path></svg>